<svg version="1.1" xmlns="http://www.w3.org/2000/svg" viewBox="0 0 1852.5357142857142 1405.7499999999998" width="1852.5357142857142" height="1405.7499999999998">
  <!-- svg-source:excalidraw -->
  
  <defs>
    <style class="style-fonts">
      @font-face {
        font-family: "Virgil";
        src: url("https://excalidraw.com/Virgil.woff2");
      }
      @font-face {
        font-family: "Cascadia";
        src: url("https://excalidraw.com/Cascadia.woff2");
      }
    </style>
  </defs>
  <g stroke-linecap="round" transform="translate(553.1428571428572 10) rotate(0 146 41.5)"><path d="M-1.43 -0.07 C90.3 0.49, 178.22 -0.52, 291.37 0.68 M-0.44 0.02 C95.77 0.5, 191.1 0.65, 292.55 -0.37 M290.21 0.88 C290.76 20.76, 293.22 42.76, 290.43 84.05 M291.54 -0.19 C291.78 29.81, 292.12 59.88, 292.89 83.98 M291.58 84.34 C205.18 85.21, 117.67 84.57, 0.54 83.96 M292 83.62 C219.69 83.57, 147.85 84.13, -0.28 82.3 M-0.04 84.96 C1.7 56, -0.21 25.17, -1.17 -1.28 M0.88 83.64 C0.85 58.26, -0.12 31.53, 0.8 0.35" stroke="#000000" stroke-width="1" fill="none"></path></g><g stroke-linecap="round" transform="translate(777.1428571428572 344.5) rotate(0 145.5 41.5)"><path d="M0.54 -1.22 C100.93 1.66, 202.07 0.47, 289.94 0.63 M0.18 0.48 C61.23 -1.65, 122.11 -1.08, 290.71 0.61 M291.72 1.29 C292.56 23.27, 288.76 46.79, 290.74 84.32 M290.39 -0.52 C291.19 23.11, 291.31 45.05, 290.16 82.35 M292.26 82.07 C223.26 83.98, 153.4 84.33, 0.47 82.54 M291.12 82.33 C196.61 81.86, 101.89 82.19, 0.58 82.97 M0.28 84.34 C-0.63 56.43, -2.43 28.37, -1.96 1.9 M-0.97 82.81 C0.72 58.24, 0.56 32.15, -0.05 0.73" stroke="#000000" stroke-width="1" fill="none"></path></g><g stroke-linecap="round" transform="translate(1000.1428571428572 660.25) rotate(0 146 41.5)"><path d="M0.54 0.72 C101.59 2.59, 202.33 1.79, 291.37 0.86 M-0.01 0.04 C78.81 -2.73, 157.78 -1.98, 291.58 -0.62 M293.89 -0.29 C293.1 25.23, 291.07 54.48, 293.04 83.68 M292.51 -0.3 C291.74 20.04, 291.83 37.74, 291.68 83.21 M290.65 83.7 C215.73 86.41, 140.62 85.79, 0.8 83.85 M292.65 82.99 C230.6 81.12, 168.33 81.56, -0.64 83.45 M-0.28 81.12 C-1.42 52.45, 0.73 23.62, -0.62 -0.41 M-0.83 83.1 C0.77 59.79, 0.48 37.03, 0.83 0.85" stroke="#000000" stroke-width="1" fill="none"></path></g><g transform="translate(1073.6428571428573 676.75) rotate(0 72.5 25)"><text x="72.5" y="18" font-family="Virgil, Segoe UI Emoji" font-size="20px" fill="#000000" text-anchor="middle" style="white-space: pre;" direction="ltr">Install Service</text><text x="72.5" y="43" font-family="Virgil, Segoe UI Emoji" font-size="20px" fill="#000000" text-anchor="middle" style="white-space: pre;" direction="ltr">Account</text></g><g stroke-linecap="round" transform="translate(1253.1428571428573 1137.25) rotate(0 146 41.5)"><path d="M-0.4 1.39 C114.94 -0.25, 229.97 -0.18, 290.66 -1.21 M0.09 -0.47 C68.01 0.01, 136.75 0.49, 292.45 0.72 M291.38 -0.63 C293.41 27.56, 291.26 53.79, 291.52 83.22 M292.86 -0.3 C291.88 19.02, 292.14 39.19, 292.94 82.9 M291.87 84.24 C186.51 80.8, 83.66 82.5, 0.99 83.36 M291.83 83.7 C184.07 84.41, 74.95 84.69, 0.04 83.14 M0.05 83.18 C1.47 52.68, -0.52 26.43, 0.15 -1.05 M0.58 83.1 C-0.38 55.92, -0.66 28.34, 0.93 -0.23" stroke="#000000" stroke-width="1" fill="none"></path></g><g transform="translate(1324.1428571428573 1153.75) rotate(0 75 25)"><text x="75" y="18" font-family="Virgil, Segoe UI Emoji" font-size="20px" fill="#000000" text-anchor="middle" style="white-space: pre;" direction="ltr">Update Service</text><text x="75" y="43" font-family="Virgil, Segoe UI Emoji" font-size="20px" fill="#000000" text-anchor="middle" style="white-space: pre;" direction="ltr">Account</text></g><g stroke-linecap="round" transform="translate(1550.5357142857142 996.4285714285718) rotate(0 146 41.5)"><path d="M1.28 -0.44 C68.29 -0.44, 136.12 1.04, 293.41 -0.16 M-0.06 0.62 C103.98 0.76, 209.28 1.61, 292.5 0.18 M291.54 1.88 C294.02 30.15, 292.26 61.72, 292.09 83.39 M292.03 0.09 C292.4 28.74, 291.41 59.51, 292.08 82.47 M292.87 83.15 C195.12 83.97, 98.6 83.58, 1.39 82.66 M291.63 82.74 C205.06 81.83, 119.36 81.09, -0.56 82.28 M-0.84 83.69 C2.07 58.97, -0.31 29.88, 0.12 -0.41 M-0.2 83.02 C-0.4 58.68, 0.42 36.75, 0.53 -0.64" stroke="#000000" stroke-width="1" fill="none"></path></g><g transform="translate(1587.5357142857142 1025.4285714285718) rotate(0 109 12.5)"><text x="109" y="18" font-family="Virgil, Segoe UI Emoji" font-size="20px" fill="#000000" text-anchor="middle" style="white-space: pre;" direction="ltr">Update API/Org Subs</text></g><g stroke-linecap="round" transform="translate(1419.2142857142858 180.17857142857144) rotate(0 146 41.5)"><path d="M-0.24 0.04 C115.05 1.03, 230.75 0.35, 292.52 0.04 M-0.28 0.73 C90.25 0.76, 180.6 1.03, 292.21 0.43 M290.42 -0.05 C293.44 25.3, 291.51 50.79, 290.77 82 M292.87 -0.76 C290.92 21.04, 291.8 43.89, 292.7 82.58 M291.7 82.1 C194.46 84.78, 96.49 85.05, 1.25 82.71 M292.3 83.63 C204.33 80.85, 115.71 80.61, -0.04 82.64 M0.36 82.93 C-1.12 67.66, 0.48 47.66, -0.91 1.03 M-0.65 83.84 C-0.75 58.94, 0.21 35.1, -0.08 -0.54" stroke="#000000" stroke-width="1" fill="none"></path></g><g transform="translate(1488.7142857142858 209.17857142857144) rotate(0 76.5 12.5)"><text x="76.5" y="18" font-family="Virgil, Segoe UI Emoji" font-size="20px" fill="#000000" text-anchor="middle" style="white-space: pre;" direction="ltr">Root DB Store</text></g><g stroke-linecap="round" transform="translate(627.1428571428572 160) rotate(0 80.5 54)"><path d="M79.66 1.65 C98.75 14.74, 118.9 26.24, 160.27 53.24 M81.13 -0.27 C103.26 16.3, 127.16 32.53, 160.52 55.59 M162.29 55.47 C144.03 68.97, 122.31 78.83, 81.92 107.83 M160.34 55.57 C138.78 69.68, 119.12 82.47, 80.41 108.01 M79.07 108.87 C58.89 95.7, 38.3 78.38, 0.16 56.8 M80.47 107.71 C49 86.05, 17.62 65.07, -0.49 55.19 M-1.37 54.53 C26.84 35.33, 57.15 15.74, 81.15 0.89 M-0.04 54.65 C17.8 42.84, 34.5 31.61, 81.43 0.61" stroke="#c92a2a" stroke-width="1" fill="none"></path></g><g transform="translate(668.6428571428572 201.5) rotate(0 39 12.5)"><text x="39" y="18" font-family="Virgil, Segoe UI Emoji" font-size="20px" fill="#c92a2a" text-anchor="middle" style="white-space: pre;" direction="ltr">Success</text></g><g transform="translate(864.6428571428572 373.5) rotate(0 58 12.5)"><text x="58" y="18" font-family="Virgil, Segoe UI Emoji" font-size="20px" fill="#000000" text-anchor="middle" style="white-space: pre;" direction="ltr">Install API</text></g><g transform="translate(588.1428571428572 39) rotate(0 111 12.5)"><text x="111" y="18" font-family="Virgil, Segoe UI Emoji" font-size="20px" fill="#000000" text-anchor="middle" style="white-space: pre;" direction="ltr">Password Confirmation</text></g><g stroke-linecap="round"><g transform="translate(807.1428571428572 208.99999999999994) rotate(0 63.936998590190456 63.93120856347494)"><path d="M-1 0.62 C17.58 3.48, 89.83 -4.74, 111.08 16.28 C132.33 37.31, 123.61 108.28, 126.51 126.77 M0.68 -0.11 C19.13 2.49, 88.81 -6.78, 110.18 14.57 C131.54 35.91, 125.69 108.99, 128.87 127.97" stroke="#1864ab" stroke-width="1" fill="none"></path></g><g transform="translate(807.1428571428572 208.99999999999994) rotate(0 63.936998590190456 63.93120856347494)"><path d="M-2.24 -7.1 C-0.75 -7.48, 1.24 -6.85, 2.57 -6.11 C3.9 -5.36, 5.22 -4.08, 5.75 -2.63 C6.28 -1.18, 6.32 0.85, 5.75 2.59 C5.17 4.33, 3.79 7.06, 2.31 7.84 C0.82 8.61, -1.45 7.67, -3.15 7.25 C-4.85 6.82, -6.98 6.4, -7.91 5.29 C-8.85 4.19, -8.98 2.32, -8.76 0.62 C-8.54 -1.07, -7.79 -3.5, -6.6 -4.89 C-5.4 -6.27, -2.62 -7.45, -1.6 -7.7 C-0.59 -7.95, -0.7 -6.72, -0.51 -6.38 M-4.59 -5.89 C-3.36 -6.84, -1.17 -8.06, 0.39 -7.43 C1.95 -6.81, 3.92 -3.69, 4.74 -2.13 C5.55 -0.57, 5.31 0.54, 5.27 1.92 C5.22 3.3, 5.65 5.1, 4.44 6.17 C3.23 7.24, -0.39 8.21, -1.99 8.34 C-3.6 8.48, -4.04 7.97, -5.19 6.97 C-6.33 5.97, -8.56 4.05, -8.85 2.34 C-9.14 0.63, -7.94 -1.88, -6.92 -3.32 C-5.9 -4.76, -3.44 -5.54, -2.72 -6.32 C-2 -7.09, -2.36 -8.02, -2.6 -7.97" stroke="none" stroke-width="0" fill="#1864ab"></path></g><g transform="translate(807.1428571428572 208.99999999999994) rotate(0 63.936998590190456 63.93120856347494)"><path d="M118.28 100.44 C121.49 106.17, 122.94 116.95, 129.21 129.34 M117.05 101.24 C120.21 109.65, 125.5 118.04, 129.24 128.67" stroke="#1864ab" stroke-width="1" fill="none"></path></g><g transform="translate(807.1428571428572 208.99999999999994) rotate(0 63.936998590190456 63.93120856347494)"><path d="M138.78 99.45 C136.44 105.27, 132.36 116.32, 129.21 129.34 M137.54 100.24 C133.85 108.94, 132.29 117.65, 129.24 128.67" stroke="#1864ab" stroke-width="1" fill="none"></path></g></g><g transform="translate(852.1428571428572 163) rotate(0 10.5 22.5)"><text x="0" y="32" font-family="Virgil, Segoe UI Emoji" font-size="36px" fill="#a61e4d" text-anchor="start" style="white-space: pre;" direction="ltr">Y</text></g><g transform="translate(765.8928571428572 486.5) rotate(0 12.5 22.5)"><text x="0" y="32" font-family="Virgil, Segoe UI Emoji" font-size="36px" fill="#a61e4d" text-anchor="start" style="white-space: pre;" direction="ltr">N</text></g><g stroke-linecap="round"><g transform="translate(610.1428571428572 217.75) rotate(0 -89.0363961426454 -86.39010506329126)"><path d="M-0.28 -0.65 C-30.01 -4.41, -168.27 7.25, -178.3 -21.37 C-188.32 -49.99, -79.93 -147.12, -60.43 -172.38 M1.77 1.62 C-28.11 -1.41, -168.69 9.58, -179.14 -19.76 C-189.58 -49.1, -80.55 -149.06, -60.9 -174.4" stroke="#1864ab" stroke-width="1" fill="none"></path></g><g transform="translate(610.1428571428572 217.75) rotate(0 -89.0363961426454 -86.39010506329126)"><path d="M2.05 -9.11 C3.65 -8.54, 5.82 -6.5, 6.87 -4.65 C7.92 -2.81, 8.84 0.25, 8.37 1.96 C7.89 3.67, 5.67 4.69, 4.02 5.62 C2.37 6.54, -0.07 7.48, -1.56 7.51 C-3.05 7.55, -3.75 7.14, -4.91 5.84 C-6.06 4.55, -8.07 1.65, -8.49 -0.24 C-8.9 -2.13, -8.56 -4.19, -7.41 -5.49 C-6.27 -6.78, -3.43 -7.5, -1.63 -8.03 C0.18 -8.57, 2.46 -8.91, 3.4 -8.71 C4.33 -8.51, 3.88 -7.22, 3.98 -6.84 M3.26 -8.25 C4.35 -8, 4.53 -7.07, 5.29 -5.58 C6.06 -4.09, 7.78 -1.02, 7.87 0.69 C7.96 2.4, 7.11 3.49, 5.85 4.7 C4.6 5.91, 2.24 7.74, 0.35 7.95 C-1.54 8.16, -4.07 7.09, -5.48 5.97 C-6.89 4.86, -7.64 3.19, -8.13 1.26 C-8.61 -0.68, -9.16 -4.15, -8.4 -5.62 C-7.65 -7.09, -5.53 -6.89, -3.59 -7.54 C-1.65 -8.19, 2.23 -9.35, 3.22 -9.51 C4.21 -9.67, 2.42 -8.86, 2.35 -8.51" stroke="none" stroke-width="0" fill="#1864ab"></path></g><g transform="translate(610.1428571428572 217.75) rotate(0 -89.0363961426454 -86.39010506329126)"><path d="M-73.63 -146.41 C-69.01 -154.27, -64.63 -164.22, -60.81 -173.28 M-72.07 -146.69 C-68.01 -156.65, -64.28 -164.56, -60.1 -174.97" stroke="#1864ab" stroke-width="1" fill="none"></path></g><g transform="translate(610.1428571428572 217.75) rotate(0 -89.0363961426454 -86.39010506329126)"><path d="M-88.68 -160.36 C-79.31 -163.9, -70.3 -169.57, -60.81 -173.28 M-87.12 -160.64 C-78.07 -165.95, -69.44 -169.31, -60.1 -174.97" stroke="#1864ab" stroke-width="1" fill="none"></path></g></g><g stroke-linecap="round" transform="translate(849.6428571428572 479) rotate(0 80.5 54)"><path d="M80.11 -1.49 C104.35 16.01, 130.91 33.6, 161.35 55.79 M80.83 -0.28 C110.77 19.72, 139.04 38.42, 161.57 54.1 M162.29 56 C135.9 69.97, 106.58 88.41, 79.65 108.29 M161.33 54.19 C133.6 73.72, 107.03 91.46, 80.73 108.5 M80.42 109.44 C57.96 92.28, 32.64 77.35, 1.5 56.09 M81.28 107.38 C62.2 97.3, 44.17 83.84, 0.56 55.08 M1.17 55.53 C22.13 42.05, 43.24 27.13, 80.93 0.93 M-0.15 54.34 C22.68 39.99, 46.17 23, 81.63 0.3" stroke="#c92a2a" stroke-width="1" fill="none"></path></g><g transform="translate(891.1428571428572 520.5) rotate(0 39 12.5)"><text x="39" y="18" font-family="Virgil, Segoe UI Emoji" font-size="20px" fill="#c92a2a" text-anchor="middle" style="white-space: pre;" direction="ltr">Success</text></g><g transform="translate(1080.6428571428573 484.5) rotate(0 10.5 22.5)"><text x="0" y="32" font-family="Virgil, Segoe UI Emoji" font-size="36px" fill="#a61e4d" text-anchor="start" style="white-space: pre;" direction="ltr">Y</text></g><g transform="translate(557.6428571428572 164.5) rotate(0 12.5 22.5)"><text x="0" y="32" font-family="Virgil, Segoe UI Emoji" font-size="36px" fill="#a61e4d" text-anchor="start" style="white-space: pre;" direction="ltr">N</text></g><g stroke-linecap="round"><g transform="translate(934.1428571428572 427) rotate(0 -0.08838937622959975 28.142534097088514)"><path d="M-0.08 1.1 C0.28 10.26, 1.31 45.62, 1.41 54.42 M-1.59 0.63 C-1.28 9.99, 0.49 46.65, 0.68 55.65" stroke="#364fc7" stroke-width="1" fill="none"></path></g><g transform="translate(934.1428571428572 427) rotate(0 -0.08838937622959975 28.142534097088514)"><path d="M3.61 -5.37 C5.07 -4.86, 5.31 -4.11, 6.09 -2.68 C6.88 -1.24, 8.66 1.72, 8.33 3.26 C8 4.81, 5.67 5.56, 4.11 6.59 C2.56 7.63, 0.47 9.34, -1 9.48 C-2.47 9.61, -3.63 8.67, -4.73 7.4 C-5.82 6.13, -7.31 3.72, -7.55 1.86 C-7.79 0, -7.04 -2.3, -6.17 -3.76 C-5.29 -5.22, -4.03 -6.53, -2.3 -6.9 C-0.57 -7.27, 2.99 -6.45, 4.21 -5.96 C5.43 -5.47, 5.04 -4.25, 5.03 -3.95 M3.5 -6 C5.09 -5.24, 5.94 -2.95, 6.49 -1.42 C7.04 0.11, 7.21 1.61, 6.82 3.18 C6.44 4.75, 5.23 7.04, 4.19 7.98 C3.15 8.93, 2.24 9.05, 0.59 8.84 C-1.07 8.62, -4.17 7.93, -5.72 6.69 C-7.27 5.45, -8.48 3.05, -8.73 1.39 C-8.98 -0.27, -8.38 -1.84, -7.22 -3.26 C-6.05 -4.67, -3.47 -6.59, -1.74 -7.1 C-0.02 -7.62, 2.46 -6.34, 3.12 -6.36 C3.78 -6.39, 2.12 -7.34, 2.21 -7.26" stroke="none" stroke-width="0" fill="#364fc7"></path></g><g transform="translate(934.1428571428572 427) rotate(0 -0.08838937622959975 28.142534097088514)"><path d="M-7.83 30.85 C-8.31 35.37, -6.72 42.74, -0.97 57.46 M-9.88 30.21 C-5.79 38.84, -1.09 48.77, 1.01 55.81" stroke="#364fc7" stroke-width="1" fill="none"></path></g><g transform="translate(934.1428571428572 427) rotate(0 -0.08838937622959975 28.142534097088514)"><path d="M10.98 30.16 C6.07 34.84, 3.24 42.37, -0.97 57.46 M8.92 29.53 C6.15 38.3, 4 48.48, 1.01 55.81" stroke="#364fc7" stroke-width="1" fill="none"></path></g></g><g stroke-linecap="round"><g transform="translate(704.1428571428572 92) rotate(0 2.0738690241891504 34.80700980202761)"><path d="M-0.13 -0.85 C0.33 10.51, 2.82 57.5, 3.41 69.29 M-1.66 1.32 C-0.86 13.32, 5.15 58.81, 5.81 70.46" stroke="#000000" stroke-width="1" fill="none"></path></g><g transform="translate(704.1428571428572 92) rotate(0 2.0738690241891504 34.80700980202761)"><path d="M1.69 -9.15 C3.13 -8.89, 4.97 -7.71, 5.98 -6.23 C6.99 -4.75, 7.69 -2.07, 7.73 -0.27 C7.76 1.54, 7.36 3.32, 6.21 4.6 C5.06 5.88, 2.7 7.32, 0.8 7.42 C-1.09 7.51, -3.84 6.25, -5.18 5.18 C-6.52 4.11, -6.69 2.63, -7.25 0.99 C-7.81 -0.66, -9.06 -2.96, -8.53 -4.69 C-8 -6.43, -5.9 -8.85, -4.08 -9.42 C-2.25 -9.99, 1.3 -8.3, 2.44 -8.11 C3.58 -7.92, 2.89 -8.16, 2.77 -8.28 M-0.37 -9.81 C1.31 -10.6, 2.95 -10.65, 4.32 -9.61 C5.7 -8.56, 7.09 -5.28, 7.89 -3.55 C8.69 -1.82, 9.99 -0.89, 9.13 0.77 C8.27 2.42, 4.3 5.21, 2.73 6.39 C1.16 7.57, 1.31 8.13, -0.29 7.84 C-1.89 7.55, -5.63 6.09, -6.87 4.64 C-8.11 3.2, -7.88 1.02, -7.72 -0.82 C-7.56 -2.66, -6.72 -5.24, -5.93 -6.4 C-5.13 -7.55, -3.72 -7.36, -2.98 -7.73 C-2.24 -8.1, -1.78 -8.73, -1.48 -8.59" stroke="none" stroke-width="0" fill="#000000"></path></g><g transform="translate(704.1428571428572 92) rotate(0 2.0738690241891504 34.80700980202761)"><path d="M-8.58 42.42 C-3.47 51.97, 2.2 64.42, 6.18 69.49 M-6.99 43.43 C-3.36 53.31, 1.45 62.66, 6.21 69.62" stroke="#000000" stroke-width="1" fill="none"></path></g><g transform="translate(704.1428571428572 92) rotate(0 2.0738690241891504 34.80700980202761)"><path d="M11.85 40.41 C9.72 50.66, 8.15 63.82, 6.18 69.49 M13.43 41.42 C9.96 52.11, 7.69 62.16, 6.21 69.62" stroke="#000000" stroke-width="1" fill="none"></path></g></g><g stroke-linecap="round"><g stroke-opacity="0.4" fill-opacity="0.4" transform="translate(775.8928571428572 174.25) rotate(0 315.2186479778128 -37.50667861360989)"><path d="M0.04 -0.33 C63.54 -15.16, 276.45 -90.34, 381.75 -88.1 C487.05 -85.86, 590.39 -3.62, 631.84 13.14 M-1.4 -1.54 C61.92 -16.25, 275.58 -88.66, 381.06 -86.55 C486.54 -84.44, 589.93 -5.55, 631.47 11.12" stroke="#1864ab" stroke-width="1" fill="none"></path></g><g stroke-opacity="0.4" fill-opacity="0.4" transform="translate(775.8928571428572 174.25) rotate(0 315.2186479778128 -37.50667861360989)"><path d="M-2.75 -8.21 C-1.22 -9.17, 0.6 -9.72, 2.02 -9.36 C3.45 -9.01, 4.89 -7.55, 5.8 -6.08 C6.71 -4.61, 7.3 -2.54, 7.46 -0.56 C7.61 1.42, 7.81 4.51, 6.73 5.8 C5.65 7.08, 2.92 7.12, 0.96 7.18 C-1 7.24, -3.59 7.04, -5.02 6.15 C-6.44 5.27, -7.22 3.33, -7.58 1.87 C-7.94 0.4, -8 -0.92, -7.17 -2.64 C-6.34 -4.37, -3.76 -7.44, -2.61 -8.51 C-1.47 -9.57, -0.46 -9.05, -0.29 -9.04 M3.45 -9.21 C5.02 -8.66, 5.03 -6.58, 6.06 -4.95 C7.1 -3.31, 9.8 -1.32, 9.68 0.61 C9.57 2.55, 7.06 5.51, 5.37 6.68 C3.67 7.84, 1.28 7.61, -0.49 7.59 C-2.26 7.57, -3.89 7.54, -5.26 6.56 C-6.63 5.58, -8.13 3.57, -8.73 1.71 C-9.33 -0.15, -9.81 -2.77, -8.88 -4.6 C-7.94 -6.43, -4.97 -8.52, -3.14 -9.28 C-1.32 -10.03, 1.21 -9.47, 2.08 -9.13 C2.95 -8.79, 1.99 -7.39, 2.05 -7.24" stroke="none" stroke-width="0" fill="#1864ab"></path></g><g stroke-opacity="0.4" fill-opacity="0.4" transform="translate(775.8928571428572 174.25) rotate(0 315.2186479778128 -37.50667861360989)"><path d="M601.23 7.71 C612.61 9.68, 624.38 8.87, 631.32 9.44 M601.32 6.18 C608.89 8.26, 614.06 8.67, 632.16 10.34" stroke="#1864ab" stroke-width="1" fill="none"></path></g><g stroke-opacity="0.4" fill-opacity="0.4" transform="translate(775.8928571428572 174.25) rotate(0 315.2186479778128 -37.50667861360989)"><path d="M610.9 -10.39 C618.92 -1.85, 627.18 3.9, 631.32 9.44 M611 -11.92 C616.39 -6.11, 619.55 -1.94, 632.16 10.34" stroke="#1864ab" stroke-width="1" fill="none"></path></g></g><g transform="translate(1063.3928571428573 97) rotate(0 75 12.5)"><text x="0" y="18" font-family="Virgil, Segoe UI Emoji" font-size="20px" fill="#000000" text-anchor="start" style="white-space: pre;" direction="ltr">Save Password</text></g><g stroke-linecap="round"><g stroke-opacity="0.3" fill-opacity="0.3" transform="translate(1072.1428571428573 373.5272585636035) rotate(0 170.24171575854587 -61.612746725948)"><path d="M0.13 0.35 C56.92 -20.06, 285.06 -101.58, 341.74 -121.9 M-1.26 -0.51 C55.35 -21.3, 283.83 -103.12, 341.14 -123.58" stroke="#1864ab" stroke-width="1" fill="none"></path></g><g stroke-opacity="0.3" fill-opacity="0.3" transform="translate(1072.1428571428573 373.5272585636035) rotate(0 170.24171575854587 -61.612746725948)"><path d="M0.77 -7.31 C2.28 -7.18, 4.43 -6.13, 5.76 -4.84 C7.08 -3.55, 8.55 -1.31, 8.72 0.42 C8.9 2.15, 7.98 4.27, 6.79 5.56 C5.6 6.84, 3.18 7.89, 1.59 8.15 C0 8.4, -1.11 7.96, -2.73 7.07 C-4.35 6.19, -7.33 4.17, -8.13 2.84 C-8.93 1.5, -7.99 0.66, -7.53 -0.92 C-7.07 -2.51, -6.97 -5.44, -5.36 -6.69 C-3.76 -7.93, 0.47 -8.24, 2.12 -8.4 C3.76 -8.56, 4.38 -7.94, 4.52 -7.63 M-2.13 -7.94 C-0.35 -8.43, 2.08 -6.82, 3.74 -6.08 C5.4 -5.34, 6.98 -4.67, 7.81 -3.51 C8.65 -2.35, 8.98 -0.9, 8.76 0.87 C8.54 2.63, 7.65 5.57, 6.47 7.09 C5.3 8.6, 3.63 10.02, 1.72 9.93 C-0.2 9.84, -3.19 8.13, -5.02 6.56 C-6.86 4.98, -8.9 2.28, -9.28 0.48 C-9.67 -1.32, -8.32 -3.07, -7.36 -4.24 C-6.39 -5.4, -4.07 -5.78, -3.5 -6.51 C-2.92 -7.24, -4.33 -8.81, -3.92 -8.61" stroke="none" stroke-width="0" fill="#1864ab"></path></g><g stroke-opacity="0.3" fill-opacity="0.3" transform="translate(1072.1428571428573 373.5272585636035) rotate(0 170.24171575854587 -61.612746725948)"><path d="M318.65 -103.31 C328.21 -113.26, 337.66 -119.18, 340.18 -122.21 M317.19 -104.93 C326.01 -109.81, 331.79 -115.86, 340.23 -124.24" stroke="#1864ab" stroke-width="1" fill="none"></path></g><g stroke-opacity="0.3" fill-opacity="0.3" transform="translate(1072.1428571428573 373.5272585636035) rotate(0 170.24171575854587 -61.612746725948)"><path d="M311.73 -122.63 C324.05 -125.18, 336.15 -123.69, 340.18 -122.21 M310.27 -124.25 C321.06 -123.27, 328.94 -123.44, 340.23 -124.24" stroke="#1864ab" stroke-width="1" fill="none"></path></g></g><g stroke-linecap="round"><g stroke-opacity="0.3" fill-opacity="0.3" transform="translate(1427.321428571429 282.82142857142856) rotate(0 -168.02243676660987 60.615796036393675)"><path d="M-1.16 -0.13 C-56.89 20.27, -279.73 102.21, -335.4 122.48 M0.42 -1.25 C-55.39 18.83, -280.4 100.23, -336.47 120.91" stroke="#1864ab" stroke-width="1" fill="none"></path></g><g stroke-opacity="0.3" fill-opacity="0.3" transform="translate(1427.321428571429 282.82142857142856) rotate(0 -168.02243676660987 60.615796036393675)"><path d="M-4.63 -7.93 C-2.99 -8.78, 0.05 -9.32, 1.53 -8.59 C3.01 -7.87, 3.29 -5.09, 4.24 -3.59 C5.2 -2.09, 7.19 -1.21, 7.27 0.41 C7.34 2.04, 5.97 4.79, 4.68 6.16 C3.39 7.52, 1.37 8.69, -0.46 8.6 C-2.29 8.51, -4.91 6.69, -6.3 5.6 C-7.69 4.51, -8.43 3.46, -8.79 2.04 C-9.15 0.63, -9.3 -1.31, -8.47 -2.9 C-7.63 -4.49, -4.76 -6.76, -3.75 -7.48 C-2.75 -8.2, -2.58 -7.17, -2.46 -7.25 M-3.32 -8.11 C-1.75 -8.46, 2.6 -6.76, 4.33 -5.87 C6.06 -4.98, 7.06 -4.3, 7.08 -2.77 C7.1 -1.24, 5.16 1.46, 4.47 3.31 C3.77 5.15, 4.15 7.73, 2.91 8.29 C1.68 8.86, -1.18 7.24, -2.93 6.68 C-4.67 6.12, -6.66 6.35, -7.56 4.93 C-8.46 3.51, -8.43 -0.02, -8.32 -1.84 C-8.21 -3.65, -8.09 -4.8, -6.91 -5.97 C-5.73 -7.15, -1.96 -8.58, -1.24 -8.9 C-0.51 -9.22, -2.31 -8.24, -2.57 -7.9" stroke="none" stroke-width="0" fill="#1864ab"></path></g><g stroke-opacity="0.3" fill-opacity="0.3" transform="translate(1427.321428571429 282.82142857142856) rotate(0 -168.02243676660987 60.615796036393675)"><path d="M-313.72 101.23 C-316.65 105.44, -323.22 110.36, -336.99 120.65 M-313.94 102.22 C-320.29 108.31, -327.2 113.03, -335.98 120.59" stroke="#1864ab" stroke-width="1" fill="none"></path></g><g stroke-opacity="0.3" fill-opacity="0.3" transform="translate(1427.321428571429 282.82142857142856) rotate(0 -168.02243676660987 60.615796036393675)"><path d="M-306.69 120.51 C-311.14 120.53, -319.2 121.32, -336.99 120.65 M-306.91 121.5 C-315.14 121.95, -324.13 120.97, -335.98 120.59" stroke="#1864ab" stroke-width="1" fill="none"></path></g></g><g transform="translate(1172.1428571428573 276.5) rotate(342.5042421228136 84.5 12.5)"><text x="0" y="18" font-family="Virgil, Segoe UI Emoji" font-size="20px" fill="#000000" text-anchor="start" style="white-space: pre;" direction="ltr">Lookup Password</text></g><g stroke-linecap="round"><g transform="translate(1008.3928571428572 528) rotate(0 69.56409845690666 63.38562357901958)"><path d="M0.78 0.65 C20.38 3.17, 93.96 -5.27, 117.07 15.77 C140.17 36.82, 135.71 108.61, 139.39 126.95 M-0.27 -0.05 C19.3 2.07, 93.44 -6.78, 116.55 14.06 C139.65 34.89, 134.61 106.21, 138.35 124.97" stroke="#1864ab" stroke-width="1" fill="none"></path></g><g transform="translate(1008.3928571428572 528) rotate(0 69.56409845690666 63.38562357901958)"><path d="M4.71 -6.76 C6.33 -5.88, 8.51 -3.38, 9.03 -1.75 C9.54 -0.11, 8.45 1.54, 7.79 3.04 C7.14 4.55, 6.42 6.23, 5.09 7.28 C3.76 8.33, 1.44 9.4, -0.19 9.33 C-1.83 9.26, -3.51 8.3, -4.72 6.86 C-5.94 5.42, -7.53 2.53, -7.49 0.7 C-7.44 -1.13, -5.59 -2.69, -4.44 -4.11 C-3.29 -5.53, -2.2 -7.3, -0.58 -7.84 C1.04 -8.37, 4.38 -7.64, 5.27 -7.31 C6.16 -6.97, 4.93 -6.04, 4.75 -5.84 M-0.84 -6.2 C0.87 -6.9, 2.78 -6.34, 4.17 -5.66 C5.56 -4.98, 6.8 -3.22, 7.52 -2.13 C8.24 -1.04, 8.62 -0.41, 8.49 0.87 C8.35 2.14, 7.82 4.08, 6.72 5.51 C5.62 6.94, 3.75 9.12, 1.88 9.44 C0.02 9.75, -2.9 8.77, -4.47 7.42 C-6.03 6.07, -7.11 3.01, -7.52 1.34 C-7.92 -0.34, -7.84 -1.32, -6.88 -2.62 C-5.93 -3.92, -2.48 -5.94, -1.79 -6.47 C-1.1 -6.99, -2.7 -5.86, -2.72 -5.77" stroke="none" stroke-width="0" fill="#1864ab"></path></g><g transform="translate(1008.3928571428572 528) rotate(0 69.56409845690666 63.38562357901958)"><path d="M127.22 98.93 C130.69 103.59, 133.67 110.15, 137.56 124.71 M127.12 98.54 C131.65 107.38, 136.24 118, 137.79 124.12" stroke="#1864ab" stroke-width="1" fill="none"></path></g><g transform="translate(1008.3928571428572 528) rotate(0 69.56409845690666 63.38562357901958)"><path d="M147.69 97.49 C145.95 102.65, 143.72 109.58, 137.56 124.71 M147.59 97.1 C144.13 106.5, 140.72 117.68, 137.79 124.12" stroke="#1864ab" stroke-width="1" fill="none"></path></g></g><g stroke-linecap="round"><g transform="translate(834.6428571428572 539.25) rotate(0 -86.74803702530915 -0.025700828181584257)"><path d="M0.54 0.22 C-28.22 0.23, -144.41 -0.52, -173.31 -0.57 M-0.64 -0.71 C-29.45 -0.49, -145.27 0.35, -174.03 0.66" stroke="#1864ab" stroke-width="1" fill="none"></path></g><g transform="translate(834.6428571428572 539.25) rotate(0 -86.74803702530915 -0.025700828181584257)"><path d="M-3.93 -6.36 C-2.68 -7.1, 0.41 -6.88, 2.32 -6.45 C4.23 -6.02, 6.61 -5.1, 7.51 -3.76 C8.41 -2.43, 7.8 0.03, 7.72 1.57 C7.65 3.1, 8.08 4.49, 7.03 5.44 C5.99 6.38, 3.28 6.93, 1.47 7.25 C-0.34 7.57, -2.58 8.25, -3.81 7.38 C-5.05 6.52, -5.6 3.72, -5.94 2.08 C-6.28 0.44, -6.33 -0.98, -5.83 -2.44 C-5.32 -3.91, -3.61 -5.87, -2.92 -6.7 C-2.23 -7.54, -1.79 -7.59, -1.7 -7.46 M1.96 -7.56 C3.45 -7.08, 6.57 -5.3, 7.55 -3.82 C8.52 -2.35, 8.19 -0.49, 7.8 1.28 C7.4 3.05, 6.36 5.68, 5.18 6.79 C4.01 7.9, 2.07 8.13, 0.74 7.92 C-0.58 7.71, -1.42 6.33, -2.77 5.54 C-4.13 4.75, -6.94 4.57, -7.39 3.18 C-7.83 1.79, -6.05 -1.16, -5.46 -2.82 C-4.87 -4.47, -4.88 -6, -3.85 -6.76 C-2.81 -7.51, -0.49 -7.5, 0.75 -7.34 C2 -7.19, 3.58 -6, 3.62 -5.81" stroke="none" stroke-width="0" fill="#1864ab"></path></g><g transform="translate(834.6428571428572 539.25) rotate(0 -86.74803702530915 -0.025700828181584257)"><path d="M-145.57 -9.12 C-153.63 -5.78, -159.55 -4.37, -174.02 2.26 M-146.68 -10.29 C-155.72 -7, -165.58 -3.53, -174.8 0.25" stroke="#1864ab" stroke-width="1" fill="none"></path></g><g transform="translate(834.6428571428572 539.25) rotate(0 -86.74803702530915 -0.025700828181584257)"><path d="M-145.39 11.4 C-153.38 9.86, -159.35 6.39, -174.02 2.26 M-146.5 10.23 C-155.7 6.53, -165.62 3.01, -174.8 0.25" stroke="#1864ab" stroke-width="1" fill="none"></path></g></g><g stroke-linecap="round" transform="translate(339.6428571428572 494) rotate(0 145.5 41.5)"><path d="M-0.01 -1.04 C114.25 1.17, 230.26 -0.39, 292.15 0.58 M-0.43 -0.01 C79.4 -0.85, 159.06 -1.51, 290.86 -0.09 M291.93 -1.41 C293.1 28.52, 291.35 60.3, 289.36 82.3 M290.45 -0.04 C290.65 28.48, 292.58 57.85, 290.28 83.26 M290.75 81.98 C174.03 83.58, 58.34 84.39, 1.4 83.26 M291.39 83.55 C191.01 80.2, 90.34 81.42, -0.42 83.58 M-0.78 83.47 C0.64 55.06, -1.53 26.6, -1.83 -1.09 M0.21 83.76 C-0.16 54.7, -1.44 26.26, -0.61 -0.81" stroke="#000000" stroke-width="1" fill="none"></path></g><g transform="translate(370.6428571428572 523) rotate(0 114.5 12.5)"><text x="114.5" y="18" font-family="Virgil, Segoe UI Emoji" font-size="20px" fill="#000000" text-anchor="middle" style="white-space: pre;" direction="ltr">Uninstall or Try Again?</text></g><g transform="translate(357.1428571428572 686.5) rotate(0 42.5 12.5)"><text x="0" y="18" font-family="Virgil, Segoe UI Emoji" font-size="20px" fill="#a61e4d" text-anchor="start" style="white-space: pre;" direction="ltr">Uninstall</text></g><g transform="translate(165.89285714285722 521.5) rotate(0 48 12.5)"><text x="0" y="18" font-family="Virgil, Segoe UI Emoji" font-size="20px" fill="#a61e4d" text-anchor="start" style="white-space: pre;" direction="ltr">Try Again</text></g><g stroke-linecap="round"><g transform="translate(335.8928571428571 541.75) rotate(0 101.88789004225379 -91.390460786419)"><path d="M-1.15 -0.79 C-39.45 -25.76, -304.84 -120.29, -230.13 -150.5 C-155.42 -180.71, 334.17 -176.94, 447.09 -182.07 M0.45 1.41 C-37.43 -23.84, -302.2 -121.29, -227.82 -152.23 C-153.43 -183.16, 334.7 -179.02, 446.77 -184.19" stroke="#1864ab" stroke-width="1" fill="none"></path></g><g transform="translate(335.8928571428571 541.75) rotate(0 101.88789004225379 -91.390460786419)"><path d="M-2.05 -8.98 C-0.3 -9.4, 1.64 -7.93, 3 -6.99 C4.36 -6.05, 5.37 -4.78, 6.08 -3.33 C6.79 -1.88, 7.94 0.29, 7.25 1.72 C6.57 3.16, 3.72 4.34, 1.95 5.25 C0.18 6.17, -1.98 7.47, -3.38 7.21 C-4.77 6.94, -5.56 4.96, -6.4 3.68 C-7.24 2.39, -8.19 1.1, -8.44 -0.51 C-8.69 -2.13, -9.09 -4.8, -7.88 -6.01 C-6.67 -7.22, -2.58 -7.48, -1.18 -7.78 C0.22 -8.08, 0.35 -7.8, 0.49 -7.82 M1.15 -9.76 C2.87 -9.39, 4.99 -6.82, 5.88 -5.07 C6.78 -3.31, 6.64 -1.02, 6.52 0.78 C6.41 2.59, 6.12 4.94, 5.19 5.76 C4.26 6.57, 2.5 5.51, 0.94 5.66 C-0.61 5.82, -2.58 7.4, -4.14 6.67 C-5.7 5.94, -7.72 2.8, -8.42 1.27 C-9.11 -0.26, -8.97 -1.2, -8.3 -2.53 C-7.63 -3.85, -5.63 -5.46, -4.4 -6.69 C-3.16 -7.91, -1.65 -9.55, -0.87 -9.86 C-0.09 -10.17, 0.21 -9.12, 0.28 -8.54" stroke="none" stroke-width="0" fill="#1864ab"></path></g><g transform="translate(335.8928571428571 541.75) rotate(0 101.88789004225379 -91.390460786419)"><path d="M417.46 -174.67 C427.68 -174.66, 434.72 -177.03, 448.75 -183.33 M418.35 -173.54 C427.81 -177.16, 435.91 -180.04, 446.73 -184.31" stroke="#1864ab" stroke-width="1" fill="none"></path></g><g transform="translate(335.8928571428571 541.75) rotate(0 101.88789004225379 -91.390460786419)"><path d="M417.08 -195.19 C427.28 -189.61, 434.43 -186.43, 448.75 -183.33 M417.97 -194.05 C427.54 -191.51, 435.75 -188.21, 446.73 -184.31" stroke="#1864ab" stroke-width="1" fill="none"></path></g></g><g stroke-linecap="round"><g transform="translate(482.8838238588406 580.5) rotate(0 3.3412331898028924 95.40288303941486)"><path d="M1.02 -1.01 C1.99 30.91, 5.43 159.78, 6.59 191.82 M0.09 1.07 C0.79 32.61, 4.11 158.08, 5.38 189.99" stroke="#1864ab" stroke-width="1" fill="none"></path></g><g transform="translate(482.8838238588406 580.5) rotate(0 3.3412331898028924 95.40288303941486)"><path d="M4.35 -8.37 C6.1 -8.15, 6.73 -6.94, 7.63 -5.43 C8.52 -3.93, 9.79 -1.19, 9.7 0.66 C9.61 2.51, 8.31 4.69, 7.09 5.67 C5.88 6.66, 4.23 6.48, 2.41 6.57 C0.59 6.67, -2.1 7.07, -3.82 6.24 C-5.54 5.42, -7.58 3.5, -7.92 1.62 C-8.26 -0.27, -6.92 -3.53, -5.86 -5.08 C-4.8 -6.63, -3.38 -7.01, -1.55 -7.68 C0.28 -8.35, 3.81 -9.18, 5.12 -9.1 C6.44 -9.02, 6.34 -7.36, 6.35 -7.2 M5.45 -6.98 C7.44 -6.56, 9.26 -6.74, 9.64 -5.62 C10.02 -4.49, 8.37 -2.14, 7.73 -0.26 C7.09 1.63, 7.11 4.71, 5.81 5.7 C4.5 6.68, 1.58 6.04, -0.11 5.66 C-1.8 5.28, -2.98 4.54, -4.35 3.42 C-5.72 2.3, -8.35 0.44, -8.34 -1.05 C-8.33 -2.54, -5.64 -4.19, -4.3 -5.52 C-2.96 -6.85, -1.6 -8.37, -0.29 -9.04 C1.02 -9.72, 2.59 -9.77, 3.56 -9.59 C4.52 -9.41, 5.57 -8.1, 5.5 -7.97" stroke="none" stroke-width="0" fill="#1864ab"></path></g><g transform="translate(482.8838238588406 580.5) rotate(0 3.3412331898028924 95.40288303941486)"><path d="M-7.47 161.31 C-0.7 173.67, 2.38 180.8, 5.69 191.2 M-6.66 161.6 C-2.5 171.65, 1.4 182.01, 5.52 189.46" stroke="#1864ab" stroke-width="1" fill="none"></path></g><g transform="translate(482.8838238588406 580.5) rotate(0 3.3412331898028924 95.40288303941486)"><path d="M13.04 160.65 C12.34 173.43, 7.95 180.8, 5.69 191.2 M13.85 160.94 C10.78 171.23, 7.45 181.82, 5.52 189.46" stroke="#1864ab" stroke-width="1" fill="none"></path></g></g><g stroke-linecap="round" transform="translate(337.3928571428572 787.75) rotate(0 146 41.5)"><path d="M-1.38 1.43 C97.3 -0.67, 191.26 -1.22, 292.72 1.11 M-0.37 0.06 C99.95 -2.65, 199.34 -1.59, 291.67 0.53 M292.43 -0.07 C293.52 29.82, 294.01 60.39, 291.91 84.1 M291.18 -0.98 C292.71 32.14, 292.41 63.35, 292.38 82.2 M292.24 83.7 C226.09 83.92, 159.25 85.93, 0.18 81.9 M292.6 83.16 C227.5 80.78, 163.88 82.08, -0.51 83.23 M0.36 81.08 C-0.59 63.63, 1.38 45.43, -0.23 1.27 M-0.07 83.33 C0.17 60.18, 0.96 36.7, 0.25 0.6" stroke="#000000" stroke-width="1" fill="none"></path></g><g transform="translate(408.8928571428572 816.75) rotate(0 74.5 12.5)"><text x="74.5" y="18" font-family="Virgil, Segoe UI Emoji" font-size="20px" fill="#000000" text-anchor="middle" style="white-space: pre;" direction="ltr">Run Uninstaller</text></g><g stroke-linecap="round"><g stroke-opacity="0.3" fill-opacity="0.3" transform="translate(635.8928571428572 833.2733452366949) rotate(0 478.2111398160952 -269.6622257173697)"><path d="M-0.01 -0.33 C139.3 -3.35, 675.77 75.51, 835.43 -18.65 C995.08 -112.81, 937.2 -473.81, 957.9 -565.27 M-1.48 -1.56 C138.26 -4.84, 677.99 74, 837.7 -20.25 C997.42 -114.5, 936.96 -475.95, 956.81 -567.05" stroke="#1864ab" stroke-width="1" fill="none"></path></g><g stroke-opacity="0.3" fill-opacity="0.3" transform="translate(635.8928571428572 833.2733452366949) rotate(0 478.2111398160952 -269.6622257173697)"><path d="M1.37 -7.81 C2.87 -7.39, 5.55 -5.37, 6.46 -4.14 C7.38 -2.91, 7.13 -1.99, 6.85 -0.43 C6.57 1.13, 5.75 3.91, 4.76 5.2 C3.78 6.48, 2.65 7.2, 0.95 7.29 C-0.76 7.38, -4.03 6.63, -5.48 5.74 C-6.92 4.85, -7.29 3.55, -7.71 1.93 C-8.13 0.31, -8.63 -2.26, -8.02 -3.99 C-7.41 -5.72, -5.73 -7.81, -4.05 -8.45 C-2.36 -9.08, 0.84 -8.07, 2.08 -7.83 C3.32 -7.59, 3.38 -7.24, 3.4 -7.02 M-2.94 -8.8 C-1.1 -9.64, 2.34 -9.11, 4.05 -8.52 C5.76 -7.94, 6.75 -7.13, 7.34 -5.28 C7.93 -3.43, 7.74 0.55, 7.57 2.6 C7.4 4.64, 7.62 6.3, 6.32 7 C5.02 7.7, 1.57 6.9, -0.23 6.79 C-2.04 6.68, -3.36 7.22, -4.52 6.34 C-5.68 5.47, -6.81 3.45, -7.2 1.52 C-7.59 -0.4, -7.87 -3.59, -6.86 -5.21 C-5.86 -6.83, -2.06 -7.71, -1.15 -8.2 C-0.24 -8.69, -1.1 -8.43, -1.4 -8.15" stroke="none" stroke-width="0" fill="#1864ab"></path></g><g stroke-opacity="0.3" fill-opacity="0.3" transform="translate(635.8928571428572 833.2733452366949) rotate(0 478.2111398160952 -269.6622257173697)"><path d="M965.65 -539.94 C965.56 -547, 963.25 -551.51, 955.04 -566.65 M967.14 -538.22 C964.08 -548, 960.87 -556.71, 956.9 -566.89" stroke="#1864ab" stroke-width="1" fill="none"></path></g><g stroke-opacity="0.3" fill-opacity="0.3" transform="translate(635.8928571428572 833.2733452366949) rotate(0 478.2111398160952 -269.6622257173697)"><path d="M945.14 -540.56 C950.38 -547.46, 953.39 -551.81, 955.04 -566.65 M946.63 -538.85 C950.24 -548.21, 953.7 -556.72, 956.9 -566.89" stroke="#1864ab" stroke-width="1" fill="none"></path></g></g><g stroke-linecap="round"><g stroke-opacity="0.3" fill-opacity="0.3" transform="translate(1626.901376825278 278.17857142857144) rotate(0 -495.6377063908883 313.6489757853171)"><path d="M0.78 -0.96 C-18.64 96.16, 48.31 486.48, -117.17 583.81 C-282.64 681.14, -846.6 583.24, -992.06 583.02 M-0.27 1.15 C-19.83 98.96, 46.52 487.93, -118.39 585.15 C-283.31 682.37, -844.63 584.79, -989.75 584.5" stroke="#1864ab" stroke-width="1" fill="none"></path></g><g stroke-opacity="0.3" fill-opacity="0.3" transform="translate(1626.901376825278 278.17857142857144) rotate(0 -495.6377063908883 313.6489757853171)"><path d="M-0.18 -9.99 C1.5 -10.57, 3.62 -10.26, 5.05 -9.39 C6.48 -8.53, 7.71 -6.55, 8.39 -4.78 C9.07 -3.01, 9.74 -0.58, 9.1 1.21 C8.47 2.99, 5.96 4.86, 4.56 5.94 C3.16 7.02, 2.17 7.97, 0.68 7.68 C-0.8 7.4, -3.09 5.7, -4.34 4.22 C-5.59 2.75, -6.5 0.65, -6.83 -1.18 C-7.15 -3.01, -7.51 -5.29, -6.27 -6.75 C-5.03 -8.21, -0.95 -9.71, 0.6 -9.93 C2.16 -10.16, 2.92 -8.34, 3.07 -8.1 M2.89 -9.09 C4.62 -9.14, 6.69 -7.72, 7.62 -6.34 C8.55 -4.97, 8.49 -2.93, 8.48 -0.87 C8.47 1.2, 8.56 4.76, 7.56 6.05 C6.57 7.33, 4.2 6.61, 2.53 6.85 C0.86 7.08, -0.82 8.36, -2.45 7.45 C-4.08 6.55, -6.73 3.13, -7.23 1.44 C-7.72 -0.26, -6 -0.97, -5.4 -2.7 C-4.8 -4.42, -4.84 -7.63, -3.62 -8.89 C-2.4 -10.16, 0.8 -10.04, 1.91 -10.27 C3.03 -10.5, 2.92 -10.85, 3.07 -10.29" stroke="none" stroke-width="0" fill="#1864ab"></path></g><g stroke-opacity="0.3" fill-opacity="0.3" transform="translate(1626.901376825278 278.17857142857144) rotate(0 -495.6377063908883 313.6489757853171)"><path d="M-962.39 575.75 C-968.45 576.88, -974.36 582.36, -990.18 586.4 M-960.75 576.86 C-970.99 578.87, -980.26 581.07, -989.65 583.58" stroke="#1864ab" stroke-width="1" fill="none"></path></g><g stroke-opacity="0.3" fill-opacity="0.3" transform="translate(1626.901376825278 278.17857142857144) rotate(0 -495.6377063908883 313.6489757853171)"><path d="M-964.12 596.2 C-969.93 592.32, -975.43 592.8, -990.18 586.4 M-962.48 597.31 C-972.01 592.37, -980.7 587.62, -989.65 583.58" stroke="#1864ab" stroke-width="1" fill="none"></path></g></g><g transform="translate(332.1428571428572 884) rotate(0 178.5 100)"><text x="0" y="18" font-family="Virgil, Segoe UI Emoji" font-size="20px" fill="#e67700" text-anchor="start" style="white-space: pre;" direction="ltr">Need to look up password</text><text x="0" y="43" font-family="Virgil, Segoe UI Emoji" font-size="20px" fill="#e67700" text-anchor="start" style="white-space: pre;" direction="ltr">or prompt user for it if gone.</text><text x="0" y="68" font-family="Virgil, Segoe UI Emoji" font-size="20px" fill="#e67700" text-anchor="start" style="white-space: pre;" direction="ltr">This is required because after</text><text x="0" y="93" font-family="Virgil, Segoe UI Emoji" font-size="20px" fill="#e67700" text-anchor="start" style="white-space: pre;" direction="ltr">the pfsense-api deletes the service</text><text x="0" y="118" font-family="Virgil, Segoe UI Emoji" font-size="20px" fill="#e67700" text-anchor="start" style="white-space: pre;" direction="ltr">account it will no longer be able to</text><text x="0" y="143" font-family="Virgil, Segoe UI Emoji" font-size="20px" fill="#e67700" text-anchor="start" style="white-space: pre;" direction="ltr">authenticate. This will then require</text><text x="0" y="168" font-family="Virgil, Segoe UI Emoji" font-size="20px" fill="#e67700" text-anchor="start" style="white-space: pre;" direction="ltr">root access to delete the remaining</text><text x="0" y="193" font-family="Virgil, Segoe UI Emoji" font-size="20px" fill="#e67700" text-anchor="start" style="white-space: pre;" direction="ltr">assets and API iteself.</text></g><g transform="translate(10 753.2857142857144) rotate(0 134 50)"><text x="0" y="18" font-family="Virgil, Segoe UI Emoji" font-size="20px" fill="#e67700" text-anchor="start" style="white-space: pre;" direction="ltr">The Uninstall endpoint</text><text x="0" y="43" font-family="Virgil, Segoe UI Emoji" font-size="20px" fill="#e67700" text-anchor="start" style="white-space: pre;" direction="ltr">needs to written to delete</text><text x="0" y="68" font-family="Virgil, Segoe UI Emoji" font-size="20px" fill="#e67700" text-anchor="start" style="white-space: pre;" direction="ltr">- users accounts</text><text x="0" y="93" font-family="Virgil, Segoe UI Emoji" font-size="20px" fill="#e67700" text-anchor="start" style="white-space: pre;" direction="ltr">- pfsense-api</text></g><g stroke-linecap="round"><g transform="translate(330.8928571428572 821.75) rotate(0 -43.66062515733299 -0.4809682502104806)"><path d="M0.67 -0.43 C-13.88 -0.59, -72.56 -0.56, -87.2 -0.76 M-0.44 -1.71 C-15.13 -1.68, -73.43 0.6, -87.99 0.75" stroke="#1864ab" stroke-width="1" fill="none"></path></g><g transform="translate(330.8928571428572 821.75) rotate(0 -43.66062515733299 -0.4809682502104806)"><path d="M-1.8 -7.91 C-0.17 -8.34, 2.69 -8.02, 4.19 -7.44 C5.69 -6.86, 6.61 -5.69, 7.19 -4.42 C7.78 -3.14, 7.94 -1.57, 7.71 0.21 C7.47 2, 6.92 5, 5.76 6.3 C4.61 7.6, 2.31 8.19, 0.77 8.03 C-0.77 7.88, -1.97 6.57, -3.46 5.36 C-4.96 4.16, -7.9 2.46, -8.22 0.8 C-8.55 -0.85, -6.67 -3.06, -5.4 -4.59 C-4.14 -6.11, -1.79 -7.88, -0.64 -8.33 C0.51 -8.79, 1.47 -7.61, 1.5 -7.33 M3.17 -7.11 C5.07 -6.61, 6.59 -5.81, 7.62 -4.66 C8.65 -3.52, 9.43 -1.78, 9.35 -0.26 C9.26 1.26, 8.29 3.42, 7.11 4.47 C5.92 5.52, 4.12 5.83, 2.24 6.04 C0.36 6.24, -2.83 6.13, -4.18 5.71 C-5.53 5.28, -5.41 4.88, -5.85 3.49 C-6.3 2.1, -7.19 -1.02, -6.85 -2.63 C-6.52 -4.24, -5.41 -5.13, -3.85 -6.19 C-2.29 -7.25, 1.67 -8.82, 2.5 -9.02 C3.32 -9.21, 1.3 -7.59, 1.09 -7.36" stroke="none" stroke-width="0" fill="#1864ab"></path></g><g transform="translate(330.8928571428572 821.75) rotate(0 -43.66062515733299 -0.4809682502104806)"><path d="M-60.8 -9.75 C-68.77 -6.19, -78.85 -4.66, -89.54 1.26 M-60.6 -10.42 C-72.08 -5.84, -82.5 -2.39, -87.92 1.58" stroke="#1864ab" stroke-width="1" fill="none"></path></g><g transform="translate(330.8928571428572 821.75) rotate(0 -43.66062515733299 -0.4809682502104806)"><path d="M-60.26 10.77 C-68.43 7.99, -78.67 3.18, -89.54 1.26 M-60.06 10.1 C-71.82 6.56, -82.45 1.88, -87.92 1.58" stroke="#1864ab" stroke-width="1" fill="none"></path></g></g><g stroke-linecap="round" transform="translate(1089.1428571428573 900.25) rotate(0 80.5 54)"><path d="M80.94 -1.99 C111.16 22.78, 144.98 45.26, 162.67 56.1 M81.71 0.67 C111.09 22.03, 140.63 41.49, 160.24 55.2 M162.38 56.84 C142.79 67.05, 128.91 77.36, 79.45 109.81 M161.01 54.59 C138.78 69.1, 116.39 83.6, 80.76 108.07 M80.41 106.36 C58.38 92.11, 35.99 78.77, -0.78 56.53 M80.89 107.51 C58.34 93.32, 34.14 78.07, -0.58 55.38 M0.9 53.52 C19.97 43.49, 37.39 29.44, 80.39 0.29 M0.43 55.51 C32.6 33.74, 64.68 12.12, 80.96 -0.27" stroke="#c92a2a" stroke-width="1" fill="none"></path></g><g transform="translate(1130.6428571428573 941.75) rotate(0 39 12.5)"><text x="39" y="18" font-family="Virgil, Segoe UI Emoji" font-size="20px" fill="#c92a2a" text-anchor="middle" style="white-space: pre;" direction="ltr">Success</text></g><g transform="translate(1318.25 961.75) rotate(0 10.5 22.5)"><text x="0" y="32" font-family="Virgil, Segoe UI Emoji" font-size="36px" fill="#a61e4d" text-anchor="start" style="white-space: pre;" direction="ltr">Y</text></g><g transform="translate(1003.7500000000001 964.25) rotate(0 12.5 22.5)"><text x="0" y="32" font-family="Virgil, Segoe UI Emoji" font-size="36px" fill="#a61e4d" text-anchor="start" style="white-space: pre;" direction="ltr">N</text></g><g stroke-linecap="round"><g transform="translate(1077.0151032618605 957.6578551586608) rotate(0 -205.39221324003086 -194.3994493974318)"><path d="M-0.69 0.57 C-31.85 -7.26, -118.04 16.92, -186.52 -48.07 C-255 -113.07, -373.84 -332.54, -411.58 -389.37 M1.14 -0.17 C-30.13 -8.23, -118.17 14.93, -187.02 -49.69 C-255.86 -114.32, -374.26 -330.97, -411.93 -387.9" stroke="#1864ab" stroke-width="1" fill="none"></path></g><g transform="translate(1077.0151032618605 957.6578551586608) rotate(0 -205.39221324003086 -194.3994493974318)"><path d="M2.39 -6.45 C4.13 -5.93, 6.27 -3.59, 6.93 -2.29 C7.6 -1, 6.68 -0.07, 6.38 1.32 C6.07 2.71, 6.3 4.98, 5.08 6.04 C3.86 7.11, 1.09 7.77, -0.94 7.71 C-2.98 7.64, -5.98 6.7, -7.14 5.66 C-8.29 4.61, -7.73 2.93, -7.88 1.46 C-8.03 -0.02, -8.7 -1.76, -8.02 -3.18 C-7.34 -4.6, -5.86 -6.67, -3.78 -7.05 C-1.7 -7.44, 3.09 -6, 4.47 -5.5 C5.84 -5, 4.76 -4.1, 4.47 -4.03 M-0.5 -7.36 C0.97 -7.51, 2.84 -5.9, 4.04 -4.91 C5.25 -3.91, 6.62 -3.1, 6.7 -1.38 C6.77 0.35, 5.56 4.11, 4.49 5.45 C3.41 6.78, 1.52 6.44, 0.23 6.63 C-1.05 6.83, -1.61 7.34, -3.22 6.61 C-4.83 5.88, -8.63 3.82, -9.44 2.26 C-10.25 0.69, -8.8 -1.5, -8.09 -2.78 C-7.37 -4.06, -6.74 -4.58, -5.15 -5.45 C-3.56 -6.33, 0.57 -7.82, 1.47 -8.03 C2.37 -8.23, 0.4 -7.01, 0.23 -6.67" stroke="none" stroke-width="0" fill="#1864ab"></path></g><g transform="translate(1077.0151032618605 957.6578551586608) rotate(0 -205.39221324003086 -194.3994493974318)"><path d="M-387.57 -367.71 C-394.57 -374.21, -403.51 -382.76, -410.92 -388.45 M-387.53 -369.01 C-397.45 -375.8, -405.02 -381.61, -412.55 -386.92" stroke="#1864ab" stroke-width="1" fill="none"></path></g><g transform="translate(1077.0151032618605 957.6578551586608) rotate(0 -205.39221324003086 -194.3994493974318)"><path d="M-405.11 -357.06 C-406.16 -367.02, -409.23 -379.12, -410.92 -388.45 M-405.08 -358.36 C-408.99 -368.75, -410.52 -378.22, -412.55 -386.92" stroke="#1864ab" stroke-width="1" fill="none"></path></g></g><g stroke-linecap="round"><g transform="translate(1263.238685304324 950.4517141585475) rotate(0 76.39215321248685 85.52320381344282)"><path d="M0.24 -0.83 C22.5 1.98, 108.63 -11.66, 134.24 17.04 C159.85 45.74, 150.77 145.74, 153.88 171.37 M-1.1 1.35 C21.48 4.36, 110.77 -9.92, 136.47 18.64 C162.17 47.2, 150.41 147.22, 153.1 172.72" stroke="#1864ab" stroke-width="1" fill="none"></path></g><g transform="translate(1263.238685304324 950.4517141585475) rotate(0 76.39215321248685 85.52320381344282)"><path d="M2.36 -8.83 C4.05 -8.84, 6.36 -7.99, 7.5 -6.41 C8.64 -4.83, 9.57 -1.06, 9.22 0.65 C8.87 2.35, 6.77 2.73, 5.41 3.8 C4.05 4.86, 2.73 6.6, 1.04 7.03 C-0.65 7.46, -3.22 7.42, -4.75 6.37 C-6.27 5.33, -7.55 2.46, -8.09 0.76 C-8.63 -0.94, -8.77 -2.2, -8 -3.84 C-7.23 -5.47, -5.33 -8.25, -3.44 -9.04 C-1.55 -9.82, 2.18 -8.66, 3.34 -8.56 C4.5 -8.45, 3.58 -8.51, 3.53 -8.42 M4.06 -7.79 C5.72 -7.07, 6.69 -5.39, 7.16 -4.11 C7.63 -2.84, 6.93 -1.63, 6.89 -0.13 C6.84 1.37, 8.11 3.86, 6.88 4.87 C5.65 5.89, 1.35 5.94, -0.51 5.97 C-2.36 5.99, -2.96 5.75, -4.26 5.01 C-5.55 4.28, -7.65 3.26, -8.28 1.55 C-8.91 -0.15, -9 -3.45, -8.03 -5.22 C-7.07 -6.98, -4.43 -8.67, -2.52 -9.02 C-0.61 -9.36, 2.62 -7.3, 3.45 -7.27 C4.28 -7.23, 2.63 -8.75, 2.46 -8.82" stroke="none" stroke-width="0" fill="#1864ab"></path></g><g transform="translate(1263.238685304324 950.4517141585475) rotate(0 76.39215321248685 85.52320381344282)"><path d="M141.52 142.99 C146.76 154.46, 150.3 162.82, 152.29 173.3 M143.75 143.76 C146.35 151.89, 148.52 159.77, 153.55 173.13" stroke="#1864ab" stroke-width="1" fill="none"></path></g><g transform="translate(1263.238685304324 950.4517141585475) rotate(0 76.39215321248685 85.52320381344282)"><path d="M162.04 143.03 C160 154.53, 156.25 162.88, 152.29 173.3 M164.28 143.81 C161.45 151.77, 158.21 159.63, 153.55 173.13" stroke="#1864ab" stroke-width="1" fill="none"></path></g></g><g stroke-linecap="round"><g transform="translate(1512.5000000000005 1346.3928571428569) rotate(0 90.60225895396661 -125.41891376804745)"><path d="M1.19 0.22 C27.49 -10.47, 128.82 -22.6, 158.77 -64.14 C188.71 -105.67, 177.44 -218.1, 180.85 -248.97 M0.35 -0.71 C26.39 -11.27, 127.62 -21.31, 157.63 -63.03 C187.64 -104.76, 176.85 -220.19, 180.42 -251.06" stroke="#1864ab" stroke-width="1" fill="none"></path></g><g transform="translate(1512.5000000000005 1346.3928571428569) rotate(0 90.60225895396661 -125.41891376804745)"><path d="M3.17 -6.8 C4.7 -6.31, 7.44 -5.55, 8.57 -3.98 C9.7 -2.42, 10.32 0.86, 9.95 2.59 C9.59 4.31, 7.72 5.58, 6.36 6.36 C5 7.14, 3.7 7.27, 1.8 7.26 C-0.1 7.26, -3.47 7.26, -5.02 6.34 C-6.56 5.43, -7.34 3.49, -7.48 1.78 C-7.62 0.08, -6.85 -2.39, -5.86 -3.89 C-4.88 -5.4, -3.42 -6.79, -1.58 -7.24 C0.27 -7.7, 3.79 -6.99, 5.22 -6.59 C6.65 -6.2, 6.86 -4.99, 7 -4.89 M-0.67 -6.75 C0.99 -7.37, 3.85 -7.33, 5.39 -6.97 C6.93 -6.62, 8.18 -6.04, 8.58 -4.61 C8.98 -3.18, 8.32 -0.29, 7.8 1.63 C7.28 3.54, 6.58 5.83, 5.46 6.9 C4.34 7.97, 2.67 8.34, 1.09 8.04 C-0.48 7.73, -2.4 6.05, -3.97 5.06 C-5.55 4.06, -7.97 3.7, -8.36 2.06 C-8.76 0.43, -7.58 -3.3, -6.33 -4.72 C-5.08 -6.15, -1.83 -6.15, -0.88 -6.48 C0.08 -6.8, -0.64 -6.38, -0.59 -6.67" stroke="none" stroke-width="0" fill="#1864ab"></path></g><g transform="translate(1512.5000000000005 1346.3928571428569) rotate(0 90.60225895396661 -125.41891376804745)"><path d="M190.54 -223.29 C185.1 -232.26, 183.62 -245.61, 180.54 -252.56 M190.24 -223.5 C185.91 -232.53, 182.99 -243.69, 179.44 -251.54" stroke="#1864ab" stroke-width="1" fill="none"></path></g><g transform="translate(1512.5000000000005 1346.3928571428569) rotate(0 90.60225895396661 -125.41891376804745)"><path d="M170.02 -223.65 C172.33 -232.69, 178.6 -245.9, 180.54 -252.56 M169.72 -223.86 C173.12 -232.61, 177.93 -243.64, 179.44 -251.54" stroke="#1864ab" stroke-width="1" fill="none"></path></g></g><g stroke-linecap="round" transform="translate(1333.428571428572 1287.7499999999998) rotate(0 80.5 54)"><path d="M81.33 0.23 C96.19 9.13, 115.17 23.37, 161.68 55.88 M81.59 -0.3 C111.6 21.63, 142.26 41.7, 160.09 54.97 M161.52 53.38 C129.74 72.66, 104.27 92.98, 80.48 106.36 M161.19 54.52 C137.5 70.6, 114.57 86.63, 81.01 108.55 M81.48 106.13 C49.66 86.97, 18.84 67.02, 1.93 55.88 M80.1 108.12 C61.28 94.42, 41.35 82.6, 0.4 55.76 M-1.77 53.19 C25.91 37.29, 51.75 21.76, 82.14 0.47 M-0.61 54.47 C18.35 42.91, 37.87 30.24, 80.84 -0.16" stroke="#c92a2a" stroke-width="1" fill="none"></path></g><g transform="translate(1374.928571428572 1329.2499999999998) rotate(0 39 12.5)"><text x="39" y="18" font-family="Virgil, Segoe UI Emoji" font-size="20px" fill="#c92a2a" text-anchor="middle" style="white-space: pre;" direction="ltr">Success</text></g><g transform="translate(1628.5357142857142 1267.285714285714) rotate(0 10.5 22.5)"><text x="0" y="32" font-family="Virgil, Segoe UI Emoji" font-size="36px" fill="#a61e4d" text-anchor="start" style="white-space: pre;" direction="ltr">Y</text></g><g transform="translate(1262.6071428571431 1271.2142857142853) rotate(0 12.5 22.5)"><text x="0" y="32" font-family="Virgil, Segoe UI Emoji" font-size="36px" fill="#a61e4d" text-anchor="start" style="white-space: pre;" direction="ltr">N</text></g><g stroke-linecap="round"><g transform="translate(1161.7857142857142 756.7499999999999) rotate(0 4.781300388276577 65.27553617766529)"><path d="M-0.44 -0.31 C1.03 21.5, 8.14 108.71, 10 130.84 M1.53 -1.52 C2.74 20.45, 7.58 110.03, 9.05 132.07" stroke="#1864ab" stroke-width="1" fill="none"></path></g><g transform="translate(1161.7857142857142 756.7499999999999) rotate(0 4.781300388276577 65.27553617766529)"><path d="M-2.66 -7.47 C-0.92 -8.06, 2.62 -8.63, 4.24 -7.83 C5.86 -7.02, 6.57 -4.33, 7.07 -2.65 C7.57 -0.97, 7.95 0.59, 7.24 2.24 C6.52 3.89, 4.33 6.53, 2.78 7.26 C1.23 7.99, -0.25 6.89, -2.04 6.62 C-3.83 6.36, -6.91 6.87, -7.95 5.65 C-8.99 4.43, -8.53 1.25, -8.26 -0.71 C-8 -2.66, -7.56 -4.94, -6.35 -6.1 C-5.13 -7.26, -2.34 -7.49, -0.97 -7.65 C0.39 -7.8, 1.67 -6.98, 1.85 -7.05 M-0.39 -9.33 C1.58 -9.48, 3.08 -7.07, 4.38 -6.13 C5.69 -5.18, 7.02 -5.36, 7.43 -3.66 C7.85 -1.95, 7.77 2.31, 6.88 4.1 C6 5.9, 3.72 6.65, 2.12 7.13 C0.52 7.6, -1.03 7.31, -2.71 6.95 C-4.39 6.6, -6.71 6.3, -7.96 5 C-9.2 3.7, -10.57 0.9, -10.19 -0.84 C-9.81 -2.57, -7.01 -4.38, -5.67 -5.4 C-4.34 -6.42, -2.71 -6.71, -2.18 -6.97 C-1.65 -7.23, -2.55 -6.86, -2.51 -6.98" stroke="none" stroke-width="0" fill="#1864ab"></path></g><g transform="translate(1161.7857142857142 756.7499999999999) rotate(0 4.781300388276577 65.27553617766529)"><path d="M-3.38 104.54 C0.89 116.76, 8.38 128.13, 9.03 130.41 M-2.45 105.07 C-0.89 110.93, 2.23 115.64, 9.49 133.05" stroke="#1864ab" stroke-width="1" fill="none"></path></g><g transform="translate(1161.7857142857142 756.7499999999999) rotate(0 4.781300388276577 65.27553617766529)"><path d="M17.1 103.33 C13.24 115.95, 12.59 127.8, 9.03 130.41 M18.03 103.85 C15.38 109.99, 14.29 114.95, 9.49 133.05" stroke="#1864ab" stroke-width="1" fill="none"></path></g></g><g stroke-linecap="round"><g transform="translate(1323.2142857142858 1345.3214285714284) rotate(0 -346.1205270210826 -375.4494099756935)"><path d="M-0.35 0.01 C-68.55 -16.12, -293.35 27.6, -408.8 -97.24 C-524.25 -222.09, -645.85 -640.27, -693.05 -749.06 M1.67 -1.02 C-66.2 -17.47, -290.66 25.94, -406.59 -99.04 C-522.52 -224.03, -646.47 -642.61, -693.92 -750.91" stroke="#1864ab" stroke-width="1" fill="none"></path></g><g transform="translate(1323.2142857142858 1345.3214285714284) rotate(0 -346.1205270210826 -375.4494099756935)"><path d="M1.16 -7.27 C2.73 -7.09, 4.85 -6.54, 5.91 -5.24 C6.96 -3.95, 7.59 -1.19, 7.48 0.5 C7.37 2.2, 6.58 3.8, 5.27 4.91 C3.95 6.02, 1.2 6.75, -0.4 7.18 C-2 7.61, -3.19 8.17, -4.34 7.49 C-5.49 6.81, -6.57 4.73, -7.29 3.1 C-8.01 1.47, -9.39 -0.46, -8.66 -2.3 C-7.94 -4.13, -4.65 -7.09, -2.94 -7.89 C-1.23 -8.69, 0.6 -7.37, 1.61 -7.09 C2.62 -6.82, 3.12 -6.38, 3.13 -6.24 M-0.5 -7.13 C0.85 -7.44, 1.46 -8, 2.93 -7.38 C4.41 -6.76, 7.51 -5.27, 8.36 -3.4 C9.21 -1.53, 8.79 2.02, 8.03 3.84 C7.27 5.65, 5.55 6.69, 3.79 7.47 C2.04 8.26, -0.64 8.89, -2.52 8.53 C-4.4 8.17, -6.6 6.71, -7.5 5.3 C-8.41 3.9, -8.29 1.63, -7.93 0.11 C-7.57 -1.41, -6.51 -2.32, -5.36 -3.81 C-4.21 -5.31, -1.69 -8.39, -1.03 -8.85 C-0.37 -9.31, -1.19 -6.83, -1.4 -6.56" stroke="none" stroke-width="0" fill="#1864ab"></path></g><g transform="translate(1323.2142857142858 1345.3214285714284) rotate(0 -346.1205270210826 -375.4494099756935)"><path d="M-674.48 -729.62 C-679.91 -736.09, -685.88 -742, -693.88 -749.42 M-674.19 -727.38 C-680.04 -733.49, -683.05 -738.29, -694.87 -750.16" stroke="#1864ab" stroke-width="1" fill="none"></path></g><g transform="translate(1323.2142857142858 1345.3214285714284) rotate(0 -346.1205270210826 -375.4494099756935)"><path d="M-693.72 -722.49 C-692.67 -731.3, -692.19 -739.6, -693.88 -749.42 M-693.44 -720.25 C-694.78 -728.07, -693.26 -734.55, -694.87 -750.16" stroke="#1864ab" stroke-width="1" fill="none"></path></g></g><g stroke-linecap="round"><g transform="translate(1405.5758424688665 1230.0458923937633) rotate(0 0.9363773411693046 27.769606629318787)"><path d="M0.72 -0.39 C0.98 8.75, 2.06 46.34, 2.24 55.67 M-0.36 -1.65 C-0.26 7.63, 1.46 47.43, 1.71 57.19" stroke="#1864ab" stroke-width="1" fill="none"></path></g><g transform="translate(1405.5758424688665 1230.0458923937633) rotate(0 0.9363773411693046 27.769606629318787)"><path d="M1.63 -9.08 C3.3 -8.9, 6.06 -6.74, 7.15 -5.21 C8.25 -3.67, 8.2 -1.46, 8.21 0.13 C8.22 1.72, 8.1 3.11, 7.23 4.33 C6.36 5.56, 4.75 7.01, 2.98 7.48 C1.21 7.95, -1.72 7.94, -3.4 7.14 C-5.08 6.34, -6.59 4.42, -7.1 2.68 C-7.61 0.93, -7.07 -1.49, -6.46 -3.32 C-5.85 -5.16, -5.23 -7.36, -3.44 -8.31 C-1.65 -9.26, 2.93 -9.06, 4.26 -9.04 C5.58 -9.02, 4.83 -8.57, 4.5 -8.19 M-3 -8.19 C-1.76 -8.94, 0.56 -9.7, 2.46 -9.15 C4.36 -8.59, 7.07 -6.23, 8.39 -4.87 C9.7 -3.51, 10.88 -2.56, 10.37 -1 C9.86 0.56, 7.01 2.98, 5.31 4.5 C3.61 6.02, 1.74 7.96, 0.18 8.11 C-1.39 8.25, -2.69 6.55, -4.1 5.39 C-5.51 4.22, -7.7 2.43, -8.28 1.12 C-8.86 -0.2, -8.64 -0.77, -7.6 -2.5 C-6.55 -4.24, -2.91 -8.35, -2 -9.29 C-1.1 -10.23, -2.12 -8.28, -2.17 -8.15" stroke="none" stroke-width="0" fill="#1864ab"></path></g><g transform="translate(1405.5758424688665 1230.0458923937633) rotate(0 0.9363773411693046 27.769606629318787)"><path d="M-9.4 32.7 C-4.89 41.08, -1.26 49.04, 3.28 55.89 M-8.67 30.91 C-5.6 37.63, -3.35 42.61, 2.67 57.58" stroke="#1864ab" stroke-width="1" fill="none"></path></g><g transform="translate(1405.5758424688665 1230.0458923937633) rotate(0 0.9363773411693046 27.769606629318787)"><path d="M9.65 32.03 C7.34 40.76, 4.15 48.96, 3.28 55.89 M10.38 30.23 C9.31 36.97, 7.43 42.1, 2.67 57.58" stroke="#1864ab" stroke-width="1" fill="none"></path></g></g></svg>